<svg width="18" height="18" viewBox="0 0 18 18" fill="none" xmlns="http://www.w3.org/2000/svg">
<path d="M16.7997 0.300049H1.2003C0.538488 0.300049 0 0.838572 0 1.50035V11.4C0 11.5656 0.134402 11.7 0.299988 11.7H17.7C17.8656 11.7 18 11.5656 18 11.4V1.50035C18 0.838572 17.4615 0.300049 16.7997 0.300049ZM17.4 11.1H0.600012V1.50035C0.600012 1.16915 0.869414 0.900061 1.2003 0.900061H16.7997C17.1306 0.900061 17.4 1.16915 17.4 1.50035V11.1Z" fill="#2F2F2F"/>
<path d="M17.7 11.1001H0.299988C0.134402 11.1001 0 11.2345 0 11.4001V12.8998C0 13.5616 0.538488 14.1001 1.2003 14.1001H16.7997C17.4615 14.1001 18 13.5616 18 12.8998V11.4001C18 11.2345 17.8656 11.1001 17.7 11.1001ZM17.4 12.8998C17.4 13.231 17.1306 13.5001 16.7997 13.5001H1.2003C0.869414 13.5001 0.600012 13.231 0.600012 12.8998V11.7001H17.4V12.8998H17.4Z" fill="#2F2F2F"/>
<path d="M9.89979 12.3H8.09979C7.93421 12.3 7.7998 12.4345 7.7998 12.6C7.7998 12.7656 7.93421 12.9 8.09979 12.9H9.89979C10.0654 12.9 10.1998 12.7656 10.1998 12.6C10.1998 12.4345 10.0654 12.3 9.89979 12.3Z" fill="#2F2F2F"/>
<path d="M16.5002 1.5H1.50018C1.3346 1.5 1.2002 1.6344 1.2002 1.79999V11.4C1.2002 11.5656 1.3346 11.7 1.50018 11.7H16.5002C16.6658 11.7 16.8002 11.5656 16.8002 11.4V1.79999C16.8002 1.6344 16.6658 1.5 16.5002 1.5ZM16.2002 11.1H1.80017V2.09998H16.2002V11.1Z" fill="#2F2F2F"/>
<path d="M12.9002 15.8999H5.1002C4.604 15.8999 4.2002 16.3037 4.2002 16.7999C4.2002 17.2961 4.604 17.6999 5.1002 17.6999H12.9002C13.3964 17.6999 13.8002 17.2961 13.8002 16.7999C13.8002 16.3037 13.3964 15.8999 12.9002 15.8999ZM12.9002 17.0999H5.1002C4.93461 17.0999 4.80021 16.9652 4.80021 16.7999C4.80021 16.6346 4.93461 16.4999 5.1002 16.4999H12.9002C13.0658 16.4999 13.2002 16.6346 13.2002 16.7999C13.2002 16.9652 13.0658 17.0999 12.9002 17.0999Z" fill="#2F2F2F"/>
<path d="M12.3004 15.9001C11.3049 15.9001 10.8003 15.1936 10.8003 13.8001C10.8003 13.6345 10.6659 13.5001 10.5004 13.5001H7.50038C7.33479 13.5001 7.20039 13.6345 7.20039 13.8001C7.20039 15.1936 6.69579 15.9001 5.70038 15.9001C5.53479 15.9001 5.40039 16.0345 5.40039 16.2001C5.40039 16.3657 5.53479 16.5001 5.70038 16.5001H12.3004C12.4659 16.5001 12.6003 16.3657 12.6003 16.2001C12.6003 16.0345 12.4659 15.9001 12.3004 15.9001ZM7.16165 15.9001C7.53096 15.4909 7.74844 14.8816 7.79224 14.1001H10.2087C10.2522 14.8816 10.4697 15.4909 10.8393 15.9001H7.16165Z" fill="#2F2F2F"/>
<path d="M8.99959 2.69995C6.84919 2.69995 5.09961 4.44953 5.09961 6.59993C5.09961 8.75033 6.84919 10.5 8.99959 10.5C11.15 10.5 12.8996 8.75033 12.8996 6.59993C12.8996 4.44953 11.15 2.69995 8.99959 2.69995ZM8.99959 9.89994C7.18008 9.89994 5.69958 8.41944 5.69958 6.59993C5.69958 4.78042 7.18008 3.29996 8.99959 3.29996C10.8191 3.29996 12.2996 4.78046 12.2996 6.59997C12.2996 8.41948 10.8191 9.89994 8.99959 9.89994Z" fill="#2F2F2F"/>
<path d="M7.02408 6.59999L7.71198 5.91208C7.8293 5.7948 7.8293 5.60517 7.71198 5.48789C7.59498 5.37057 7.40479 5.37057 7.28779 5.48789L6.38779 6.38789C6.27048 6.50521 6.27048 6.6948 6.38779 6.81209L7.28779 7.71208C7.34629 7.77058 7.4231 7.79998 7.49989 7.79998C7.5767 7.79998 7.65348 7.77058 7.71198 7.71208C7.8293 7.59477 7.8293 7.40517 7.71198 7.28789L7.02408 6.59999Z" fill="#2F2F2F"/>
<path d="M11.6124 6.38789L10.7124 5.48789C10.5954 5.37057 10.4052 5.37057 10.2882 5.48789C10.1709 5.60521 10.1709 5.7948 10.2882 5.91208L10.9761 6.59999L10.2882 7.28789C10.1709 7.40517 10.1709 7.5948 10.2882 7.71208C10.3467 7.77058 10.4235 7.79998 10.5003 7.79998C10.5771 7.79998 10.6539 7.77058 10.7124 7.71208L11.6124 6.81209C11.7297 6.6948 11.7297 6.50521 11.6124 6.38789Z" fill="#2F2F2F"/>
<path d="M9.69449 4.51539C9.53819 4.46318 9.3675 4.54809 9.31498 4.70499L8.115 8.30499C8.06279 8.46217 8.14769 8.63197 8.30491 8.6845C8.33609 8.69501 8.36823 8.70011 8.39973 8.70011C8.52541 8.70011 8.64241 8.62062 8.68442 8.4949L9.8844 4.8949C9.93661 4.73768 9.85171 4.56792 9.69449 4.51539Z" fill="#2F2F2F"/>
<path d="M3.90037 2.69995H2.70038C2.53479 2.69995 2.40039 2.83435 2.40039 2.99994V4.19993C2.40039 4.36551 2.53479 4.49992 2.70038 4.49992C2.86596 4.49992 3.00037 4.36551 3.00037 4.19993V3.29993H3.90037C4.06595 3.29993 4.20036 3.16553 4.20036 2.99994C4.20036 2.83435 4.06599 2.69995 3.90037 2.69995Z" fill="#2F2F2F"/>
<path d="M15.2998 8.69995C15.1342 8.69995 14.9998 8.83435 14.9998 8.99994V9.89995H14.0998C13.9342 9.89995 13.7998 10.0344 13.7998 10.1999C13.7998 10.3655 13.9342 10.4999 14.0998 10.4999H15.2998C15.4654 10.4999 15.5998 10.3655 15.5998 10.1999V8.99994C15.5998 8.83435 15.4654 8.69995 15.2998 8.69995Z" fill="#2F2F2F"/>
</svg>
