<svg width="18" height="18" viewBox="0 0 18 18" fill="none" xmlns="http://www.w3.org/2000/svg">
<g clip-path="url(#clip0)">
<path d="M9 6.14587C8.80595 6.14587 8.64844 6.30325 8.64844 6.49744C8.64844 6.69148 8.80595 6.849 9 6.849C9.19405 6.849 9.35156 6.69148 9.35156 6.49744C9.35156 6.30325 9.19405 6.14587 9 6.14587Z" fill="#2F2F2F"/>
<path d="M16.9453 8.25539H15.5774C14.8563 6.19628 13.81 2.58576 11.9145 1.56389C10.9666 1.05344 10.0705 1.40995 9.73347 2.13422C9.5901 2.44211 9.30377 2.60402 9 2.60402C8.69211 2.60402 8.40811 2.43854 8.26653 2.1345C7.94147 1.43494 7.06682 1.04575 6.15207 1.48974C4.2263 2.42495 3.14937 6.18076 2.42262 8.25539H1.05469C0.472 8.25539 0 8.72725 0 9.31008C0 9.89153 0.473099 10.3648 1.05469 10.3648H16.9453C17.528 10.3648 18 9.89277 18 9.31008C18 8.72849 17.5269 8.25539 16.9453 8.25539ZM3.65762 6.84914H7.59375C7.78793 6.84914 7.94531 6.69162 7.94531 6.49758C7.94531 6.30339 7.78793 6.14602 7.59375 6.14602H3.90344C4.96321 3.21857 5.95322 2.36795 6.45914 2.12227C7.01106 1.85448 7.46535 2.0786 7.62904 2.43099C7.88695 2.98497 8.42047 3.30715 9 3.30715C9.5809 3.30715 10.1137 2.98374 10.371 2.43099C10.5395 2.06858 10.9961 1.86794 11.581 2.18284C12.0892 2.45694 13.0762 3.33585 14.0964 6.14602H10.4062C10.2121 6.14602 10.0547 6.30339 10.0547 6.49758C10.0547 6.69176 10.2121 6.84914 10.4062 6.84914H14.3425C14.5202 7.36165 14.7048 7.89051 14.8325 8.25539H3.16763C3.29494 7.89147 3.4791 7.36385 3.65762 6.84914ZM16.9453 9.66164H1.05469C0.860779 9.66164 0.703125 9.50385 0.703125 9.31008C0.703125 9.11589 0.860504 8.95852 1.05469 8.95852H16.9453C17.1392 8.95852 17.2969 9.11617 17.2969 9.31008C17.2969 9.50412 17.1394 9.66164 16.9453 9.66164Z" fill="#2F2F2F"/>
<path d="M8.29688 11.7709H2.67188C2.47769 11.7709 2.32031 11.9283 2.32031 12.1225V13.5287C2.32031 15.2733 3.73975 16.6928 5.48438 16.6928C6.8063 16.6928 7.97635 15.8796 8.44176 14.6547C8.79524 14.4934 9.20476 14.4934 9.55824 14.6547C10.0237 15.8796 11.1937 16.6926 12.5156 16.6926C14.2603 16.6926 15.6797 15.2733 15.6797 13.5286V12.1223C15.6797 11.9281 15.5223 11.7708 15.3281 11.7708H9.70312C9.50894 11.7708 9.35156 11.9281 9.35156 12.1223V12.4739H8.64844V12.1223C8.64844 11.9283 8.49106 11.7709 8.29688 11.7709ZM5.48438 15.9896C4.12743 15.9896 3.02344 14.8857 3.02344 13.5287V12.474H7.94531V13.5287C7.94531 14.8892 6.84723 15.9896 5.48438 15.9896ZM10.0547 12.474H14.9766V13.5287C14.9766 14.8857 13.8726 15.9896 12.5156 15.9896C11.1493 15.9896 10.0547 14.8859 10.0547 13.5287V12.474ZM9.35156 13.1771V13.5287C9.35156 13.641 9.35802 13.753 9.36969 13.8641C9.12538 13.8194 8.87462 13.8194 8.63031 13.8641C8.64198 13.753 8.64844 13.641 8.64844 13.5287V13.1771H9.35156Z" fill="#2F2F2F"/>
<path d="M5.48438 14.5834C4.90279 14.5834 4.42969 14.1101 4.42969 13.5287C4.42969 13.3345 4.27231 13.1771 4.07812 13.1771C3.88394 13.1771 3.72656 13.3345 3.72656 13.5287C3.72656 14.4978 4.51511 15.2865 5.48438 15.2865C5.67856 15.2865 5.83594 15.129 5.83594 14.9349C5.83594 14.7408 5.67856 14.5834 5.48438 14.5834Z" fill="#2F2F2F"/>
<path d="M12.5156 15.2865C13.4849 15.2865 14.2734 14.4978 14.2734 13.5287C14.2734 13.3345 14.1161 13.1771 13.9219 13.1771C13.7277 13.1771 13.5703 13.3345 13.5703 13.5287C13.5703 14.1101 13.0972 14.5834 12.5156 14.5834C12.3214 14.5834 12.1641 14.7408 12.1641 14.9349C12.1641 15.129 12.3214 15.2865 12.5156 15.2865Z" fill="#2F2F2F"/>
</g>
<defs>
<clipPath id="clip0">
<rect width="18" height="18" fill="white"/>
</clipPath>
</defs>
</svg>
