<svg width="18" height="18" viewBox="0 0 18 18" fill="none" xmlns="http://www.w3.org/2000/svg">
<g clip-path="url(#clip0)">
<path d="M10.08 12.9899C9.83999 13.0499 9.48 13.1699 9.03001 13.1699C8.22002 13.1699 7.44002 12.9599 6.78 12.5099C6.11999 12.0599 5.61002 11.4899 5.24999 10.7699L1.40999 4.04993L1.14 4.49992C0.389983 5.84994 0 7.34993 0 8.99993C0 11.2499 0.750013 13.2299 2.18999 14.9099C3.63001 16.5599 5.49 17.5799 7.65 17.9099L7.85999 17.9399L10.89 12.7499L10.08 12.9899ZM7.52998 17.2499C5.60998 16.9199 3.95998 15.99 2.63999 14.4899C1.28997 12.9299 0.600004 11.0999 0.600004 8.99993C0.600004 7.64991 0.87 6.38993 1.40999 5.27992L4.64998 11.0399C5.03997 11.8199 5.60998 12.4799 6.38998 12.9899C7.16998 13.4699 8.03998 13.7399 8.96999 13.7399C9.21 13.7399 9.41999 13.7099 9.59999 13.6799L7.52998 17.2499Z" fill="#3E3E3E"/>
<path d="M4.94951 7.89001C5.1595 6.99002 5.6695 6.24001 6.4495 5.64001C7.16949 5.06999 8.0095 4.79999 8.99949 4.79999H16.9795L16.7095 4.35C15.9595 3.05999 14.9095 2.03998 13.4695 1.20001C12.1195 0.389983 10.6195 0 8.99949 0C7.61949 0 6.2695 0.299984 5.0695 0.899988C3.77949 1.52998 2.66948 2.43 1.88952 3.48L1.76953 3.63001L4.76951 8.54999L4.94951 7.89001ZM2.48952 3.68998C3.20951 2.75997 4.16951 2.01 5.33953 1.43998C6.44954 0.869964 7.67953 0.599968 8.99953 0.599968C10.4995 0.599968 11.9095 0.989951 13.1395 1.73996C14.3395 2.42997 15.2095 3.23995 15.8995 4.22998H8.9695C7.85949 4.22998 6.8995 4.52996 6.05952 5.18998C5.36952 5.72997 4.85951 6.35996 4.55953 7.10997L2.48952 3.68998Z" fill="#3E3E3E"/>
<path d="M17.3401 5.60999L17.2501 5.42999H11.2801L11.7901 5.94C12.6901 6.83998 13.1701 7.92 13.1701 8.99999C13.1701 9.86999 12.9301 10.68 12.4201 11.4L8.58008 18H9.09008C11.5501 17.97 13.6501 17.07 15.3901 15.33C17.1301 13.59 18.0001 11.46 18.0001 8.99999C18.0001 8.1 17.8801 6.81 17.3401 5.60999ZM14.9701 14.91C13.4701 16.41 11.7001 17.22 9.63011 17.37L12.9001 11.73C13.4701 10.89 13.7401 9.98998 13.7401 8.99999C13.7401 7.94999 13.3801 6.92998 12.6602 6.03H16.8601C17.3101 7.07999 17.4001 8.21999 17.4001 8.99999C17.4001 11.28 16.5901 13.26 14.9701 14.91Z" fill="#3E3E3E"/>
<path d="M5.40039 8.99995C5.40039 10.9499 7.05039 12.5999 9.00038 12.5999C10.9504 12.5999 12.6004 10.9499 12.6004 8.99995C12.6004 7.04996 10.9504 5.39996 9.00038 5.39996C7.05039 5.39996 5.40039 7.04996 5.40039 8.99995ZM9.00038 5.99997C10.6204 5.99997 12.0004 7.37997 12.0004 8.99995C12.0004 10.6199 10.6204 11.9999 9.00038 11.9999C7.3804 11.9999 6.00039 10.6199 6.00039 8.99995C6.00039 7.37997 7.3804 5.99997 9.00038 5.99997Z" fill="#3E3E3E"/>
</g>
<defs>
<clipPath id="clip0">
<rect width="18" height="18" fill="white"/>
</clipPath>
</defs>
</svg>
