<svg width="23" height="25" viewBox="0 0 23 25" fill="none" xmlns="http://www.w3.org/2000/svg">
<path d="M11.4994 0C17.5299 0 22.418 4.88802 22.418 10.9186C22.418 15.044 20.1312 18.6297 16.7578 20.4876L16.8862 25L11.7344 21.8249C11.6566 21.8266 11.5789 21.8371 11.4994 21.8371C5.46888 21.8371 0.580856 16.9491 0.580856 10.9186C0.580856 4.88802 5.46888 0 11.4994 0ZM10.0328 4.86793L10.439 13.2123H12.5389L12.9608 4.86793H10.0328ZM11.4872 17.4854C12.4838 17.4854 13.1459 16.7674 13.1459 15.8101C13.1459 14.8326 12.4655 14.133 11.4872 14.133C10.5132 14.133 9.86774 14.8326 9.8494 15.8101C9.85027 16.7648 10.4949 17.4854 11.4872 17.4854Z" fill="#35BE70"/>
</svg>
