<svg width="18" height="18" viewBox="0 0 18 18" fill="none" xmlns="http://www.w3.org/2000/svg">
<path d="M11.5404 0.9H10.7727C10.5495 0.9 10.3362 0.791402 10.2021 0.609293C9.92132 0.227707 9.4716 0 8.99941 0C8.52723 0 8.07751 0.227707 7.79672 0.609293C7.66263 0.791402 7.4493 0.9 7.22613 0.9H6.45843C5.87434 0.9 5.39941 1.37489 5.39941 1.95901V3.6C5.39941 3.76559 5.53382 3.89999 5.6994 3.89999H12.2994C12.465 3.89999 12.5994 3.76559 12.5994 3.6V1.95901C12.5994 1.37489 12.1245 0.9 11.5404 0.9ZM11.9994 3.30001H5.99943V1.95901C5.99943 1.7061 6.20551 1.50001 6.45843 1.50001H7.22613C7.63922 1.50001 8.03314 1.2999 8.28005 0.965109C8.45073 0.732902 8.71296 0.600012 8.99945 0.600012C9.28594 0.600012 9.54813 0.732902 9.71913 0.965109C9.96572 1.2999 10.3596 1.50001 10.7727 1.50001H11.5404C11.7934 1.50001 11.9994 1.7061 11.9994 1.95901V3.30001H11.9994Z" fill="#2F2F2F"/>
<path d="M14.3996 1.5H12.2996C12.134 1.5 11.9996 1.6344 11.9996 1.79999V3.3H5.99963V1.79999C5.99963 1.6344 5.86523 1.5 5.69964 1.5H3.59962C2.77254 1.5 2.09961 2.17289 2.09961 3.00001V16.5C2.09961 17.3271 2.77254 18 3.59962 18H14.3996C15.2267 18 15.8996 17.3271 15.8996 16.5V2.99998C15.8996 2.17289 15.2267 1.5 14.3996 1.5ZM15.2996 16.5C15.2996 16.9962 14.8958 17.4 14.3996 17.4H3.59962C3.10343 17.4 2.69962 16.9962 2.69962 16.5V2.99998C2.69962 2.50378 3.10343 2.09998 3.59962 2.09998H5.39962V3.59999C5.39962 3.76557 5.53402 3.89998 5.69961 3.89998H12.2996C12.4652 3.89998 12.5996 3.76557 12.5996 3.59999V2.09998H14.3996C14.8958 2.09998 15.2996 2.50378 15.2996 2.99998V16.5H15.2996Z" fill="#2F2F2F"/>
<path d="M13.7998 2.69995H12.2998C12.1342 2.69995 11.9998 2.83435 11.9998 2.99994V3.29993H5.9998V2.99994C5.9998 2.83435 5.8654 2.69995 5.69982 2.69995H4.1998C3.70361 2.69995 3.2998 3.10376 3.2998 3.59995V15.9C3.2998 16.3962 3.70361 16.8 4.1998 16.8H13.7998C14.296 16.8 14.6998 16.3962 14.6998 15.9V3.59995C14.6998 3.10376 14.296 2.69995 13.7998 2.69995ZM14.0998 15.9C14.0998 16.0653 13.9651 16.1999 13.7998 16.1999H4.1998C4.0345 16.1999 3.89982 16.0653 3.89982 15.9V3.59995C3.89982 3.43465 4.0345 3.29996 4.1998 3.29996H5.39979V3.59995C5.39979 3.76554 5.5342 3.89994 5.69978 3.89994H12.2998C12.4654 3.89994 12.5998 3.76554 12.5998 3.59995V3.29996H13.7997C13.9651 3.29996 14.0997 3.43465 14.0997 3.59995V15.9H14.0998Z" fill="#2F2F2F"/>
<path d="M9.30209 1.19995H8.69909C8.36907 1.19995 8.10059 1.46844 8.10059 1.79845V2.40145C8.10059 2.73146 8.36907 2.99995 8.69909 2.99995H9.30209C9.6321 2.99995 9.90059 2.73146 9.90059 2.40145V1.79845C9.90059 1.46847 9.6321 1.19995 9.30209 1.19995ZM8.7006 2.40145L8.69909 1.79996L9.30057 1.79845L9.30089 2.39994L8.7006 2.40145Z" fill="#2F2F2F"/>
<path d="M6.29978 4.80005H5.09979C4.93421 4.80005 4.7998 4.93445 4.7998 5.10004V6.30006C4.7998 6.46565 4.93421 6.60005 5.09979 6.60005H6.29978C6.46537 6.60005 6.59977 6.46565 6.59977 6.30006V5.10007C6.59977 4.93445 6.46537 4.80005 6.29978 4.80005ZM5.99979 6.00007H5.39978V5.40006H5.99979V6.00007Z" fill="#2F2F2F"/>
<path d="M6.29978 8.40002H5.09979C4.93421 8.40002 4.7998 8.53443 4.7998 8.70001V9.90003C4.7998 10.0656 4.93421 10.2 5.09979 10.2H6.29978C6.46537 10.2 6.59977 10.0656 6.59977 9.90003V8.70005C6.59977 8.53443 6.46537 8.40002 6.29978 8.40002ZM5.99979 9.60004H5.39978V9.00003H5.99979V9.60004Z" fill="#2F2F2F"/>
<path d="M6.29978 11.1H5.09979C4.93421 11.1 4.7998 11.2344 4.7998 11.4V12.6C4.7998 12.7656 4.93421 12.9 5.09979 12.9H6.29978C6.46537 12.9 6.59977 12.7656 6.59977 12.6V11.4C6.59977 11.2344 6.46537 11.1 6.29978 11.1ZM5.99979 12.3H5.39978V11.7H5.99979V12.3Z" fill="#2F2F2F"/>
<path d="M6.29978 13.8H5.09979C4.93421 13.8 4.7998 13.9345 4.7998 14.1V15.3001C4.7998 15.4656 4.93421 15.6 5.09979 15.6H6.29978C6.46537 15.6 6.59977 15.4656 6.59977 15.3001V14.1001C6.59977 13.9345 6.46537 13.8 6.29978 13.8ZM5.99979 15.0001H5.39978V14.4001H5.99979V15.0001Z" fill="#2F2F2F"/>
<path d="M12.8998 7.19995H5.09979C4.93421 7.19995 4.7998 7.33435 4.7998 7.49994C4.7998 7.66553 4.93421 7.79993 5.09979 7.79993H12.8998C13.0654 7.79993 13.1998 7.66553 13.1998 7.49994C13.1998 7.33435 13.0654 7.19995 12.8998 7.19995Z" fill="#2F2F2F"/>
<path d="M11.1002 4.80005H7.50018C7.3346 4.80005 7.2002 4.93445 7.2002 5.10004C7.2002 5.26562 7.3346 5.40003 7.50018 5.40003H11.1002C11.2658 5.40003 11.4002 5.26562 11.4002 5.10004C11.4002 4.93445 11.2658 4.80005 11.1002 4.80005Z" fill="#2F2F2F"/>
<path d="M12.9 4.80005H12.3C12.1344 4.80005 12 4.93445 12 5.10004C12 5.26562 12.1344 5.40003 12.3 5.40003H12.9C13.0656 5.40003 13.2 5.26562 13.2 5.10004C13.2 4.93445 13.0656 4.80005 12.9 4.80005Z" fill="#2F2F2F"/>
<path d="M12.9 6H9.29999C9.1344 6 9 6.1344 9 6.29999C9 6.46557 9.1344 6.59998 9.29999 6.59998H12.9C13.0656 6.59998 13.2 6.46557 13.2 6.29999C13.2 6.1344 13.0656 6 12.9 6Z" fill="#2F2F2F"/>
<path d="M8.10019 6H7.50018C7.3346 6 7.2002 6.1344 7.2002 6.29999C7.2002 6.46557 7.3346 6.59998 7.50018 6.59998H8.10019C8.26578 6.59998 8.40018 6.46557 8.40018 6.29999C8.40018 6.1344 8.26578 6 8.10019 6Z" fill="#2F2F2F"/>
<path d="M11.1002 8.40002H7.50018C7.3346 8.40002 7.2002 8.53443 7.2002 8.70001C7.2002 8.8656 7.3346 9 7.50018 9H11.1002C11.2658 9 11.4002 8.8656 11.4002 8.70001C11.4002 8.53443 11.2658 8.40002 11.1002 8.40002Z" fill="#2F2F2F"/>
<path d="M12.9 8.40002H12.3C12.1344 8.40002 12 8.53443 12 8.70001C12 8.8656 12.1344 9 12.3 9H12.9C13.0656 9 13.2 8.8656 13.2 8.70001C13.2 8.53443 13.0656 8.40002 12.9 8.40002Z" fill="#2F2F2F"/>
<path d="M12.9 9.59998H9.29999C9.1344 9.59998 9 9.73438 9 9.89996C9 10.0656 9.1344 10.2 9.29999 10.2H12.9C13.0656 10.2 13.2 10.0656 13.2 9.89996C13.2 9.73438 13.0656 9.59998 12.9 9.59998Z" fill="#2F2F2F"/>
<path d="M8.10019 9.59998H7.50018C7.3346 9.59998 7.2002 9.73438 7.2002 9.89996C7.2002 10.0656 7.3346 10.2 7.50018 10.2H8.10019C8.26578 10.2 8.40018 10.0656 8.40018 9.89996C8.40018 9.73438 8.26578 9.59998 8.10019 9.59998Z" fill="#2F2F2F"/>
<path d="M11.1002 11.1H7.50018C7.3346 11.1 7.2002 11.2344 7.2002 11.4C7.2002 11.5655 7.3346 11.7 7.50018 11.7H11.1002C11.2658 11.7 11.4002 11.5655 11.4002 11.4C11.4002 11.2344 11.2658 11.1 11.1002 11.1Z" fill="#2F2F2F"/>
<path d="M12.9 11.1H12.3C12.1344 11.1 12 11.2344 12 11.4C12 11.5655 12.1344 11.7 12.3 11.7H12.9C13.0656 11.7 13.2 11.5655 13.2 11.4C13.2 11.2344 13.0656 11.1 12.9 11.1Z" fill="#2F2F2F"/>
<path d="M12.9 12.3H9.29999C9.1344 12.3 9 12.4345 9 12.6C9 12.7656 9.1344 12.9 9.29999 12.9H12.9C13.0656 12.9 13.2 12.7656 13.2 12.6C13.2 12.4345 13.0656 12.3 12.9 12.3Z" fill="#2F2F2F"/>
<path d="M8.10019 12.3H7.50018C7.3346 12.3 7.2002 12.4345 7.2002 12.6C7.2002 12.7656 7.3346 12.9 7.50018 12.9H8.10019C8.26578 12.9 8.40018 12.7656 8.40018 12.6C8.40018 12.4345 8.26578 12.3 8.10019 12.3Z" fill="#2F2F2F"/>
<path d="M11.1002 13.8H7.50018C7.3346 13.8 7.2002 13.9345 7.2002 14.1C7.2002 14.2656 7.3346 14.4 7.50018 14.4H11.1002C11.2658 14.4 11.4002 14.2656 11.4002 14.1C11.4002 13.9345 11.2658 13.8 11.1002 13.8Z" fill="#2F2F2F"/>
<path d="M12.9 13.8H12.3C12.1344 13.8 12 13.9345 12 14.1C12 14.2656 12.1344 14.4 12.3 14.4H12.9C13.0656 14.4 13.2 14.2656 13.2 14.1C13.2 13.9345 13.0656 13.8 12.9 13.8Z" fill="#2F2F2F"/>
<path d="M12.9 15H9.29999C9.1344 15 9 15.1344 9 15.3C9 15.4656 9.1344 15.6 9.29999 15.6H12.9C13.0656 15.6 13.2 15.4656 13.2 15.3C13.2 15.1344 13.0656 15 12.9 15Z" fill="#2F2F2F"/>
<path d="M8.10019 15H7.50018C7.3346 15 7.2002 15.1344 7.2002 15.3C7.2002 15.4656 7.3346 15.6 7.50018 15.6H8.10019C8.26578 15.6 8.40018 15.4656 8.40018 15.3C8.40018 15.1344 8.26578 15 8.10019 15Z" fill="#2F2F2F"/>
</svg>
