<svg width="18" height="18" viewBox="0 0 18 18" fill="none" xmlns="http://www.w3.org/2000/svg">
<path d="M16.7997 0.299927H1.2003C0.538488 0.299927 0 0.83845 0 1.50023V11.3999C0 11.5655 0.134402 11.6999 0.299988 11.6999H17.7C17.8656 11.6999 18 11.5655 18 11.3999V1.50023C18 0.83845 17.4615 0.299927 16.7997 0.299927ZM17.4 11.0999H0.600012V1.50023C0.600012 1.16902 0.869414 0.899939 1.2003 0.899939H16.7997C17.1306 0.899939 17.4 1.16902 17.4 1.50023V11.0999Z" fill="#3E3E3E"/>
<path d="M17.7 11.1001H0.299988C0.134402 11.1001 0 11.2345 0 11.4001V12.8998C0 13.5616 0.538488 14.1001 1.2003 14.1001H16.7997C17.4615 14.1001 18 13.5616 18 12.8998V11.4001C18 11.2345 17.8656 11.1001 17.7 11.1001ZM17.4 12.8998C17.4 13.231 17.1306 13.5001 16.7997 13.5001H1.2003C0.869414 13.5001 0.600012 13.231 0.600012 12.8998V11.7001H17.4V12.8998H17.4Z" fill="#3E3E3E"/>
<path d="M9.89979 12.3H8.09979C7.93421 12.3 7.7998 12.4345 7.7998 12.6C7.7998 12.7656 7.93421 12.9 8.09979 12.9H9.89979C10.0654 12.9 10.1998 12.7656 10.1998 12.6C10.1998 12.4345 10.0654 12.3 9.89979 12.3Z" fill="#3E3E3E"/>
<path d="M16.5002 1.50012H1.50018C1.3346 1.50012 1.2002 1.63452 1.2002 1.80011V11.4001C1.2002 11.5657 1.3346 11.7001 1.50018 11.7001H16.5002C16.6658 11.7001 16.8002 11.5657 16.8002 11.4001V1.80011C16.8002 1.63452 16.6658 1.50012 16.5002 1.50012ZM16.2002 11.1001H1.80017V2.1001H16.2002V11.1001Z" fill="#3E3E3E"/>
<path d="M12.9002 15.8999H5.1002C4.604 15.8999 4.2002 16.3037 4.2002 16.7999C4.2002 17.2961 4.604 17.6999 5.1002 17.6999H12.9002C13.3964 17.6999 13.8002 17.2961 13.8002 16.7999C13.8002 16.3037 13.3964 15.8999 12.9002 15.8999ZM12.9002 17.0999H5.1002C4.93461 17.0999 4.80021 16.9652 4.80021 16.7999C4.80021 16.6346 4.93461 16.4999 5.1002 16.4999H12.9002C13.0658 16.4999 13.2002 16.6346 13.2002 16.7999C13.2002 16.9652 13.0658 17.0999 12.9002 17.0999Z" fill="#3E3E3E"/>
<path d="M12.3004 15.9001C11.3049 15.9001 10.8004 15.1936 10.8004 13.8001C10.8004 13.6345 10.6659 13.5001 10.5004 13.5001H7.50038C7.33479 13.5001 7.20039 13.6345 7.20039 13.8001C7.20039 15.1936 6.69579 15.9001 5.70038 15.9001C5.53479 15.9001 5.40039 16.0345 5.40039 16.2001C5.40039 16.3657 5.53479 16.5001 5.70038 16.5001H12.3004C12.4659 16.5001 12.6003 16.3657 12.6003 16.2001C12.6003 16.0345 12.4659 15.9001 12.3004 15.9001ZM7.16165 15.9001C7.53096 15.4909 7.74844 14.8816 7.79224 14.1001H10.2087C10.2522 14.8816 10.4697 15.4909 10.8393 15.9001H7.16165Z" fill="#3E3E3E"/>
<path d="M14.3352 9.13911L13.611 8.41493L14.0139 8.01204C14.0886 7.93733 14.1186 7.82873 14.0928 7.72643C14.067 7.62412 13.9893 7.54312 13.8881 7.51254L10.8882 6.61254C10.7823 6.58072 10.668 6.60983 10.59 6.68784C10.5117 6.76585 10.4829 6.88043 10.5147 6.98604L11.4147 9.98603C11.445 10.0874 11.5263 10.1651 11.6286 10.1909C11.7305 10.2161 11.8395 10.1867 11.9142 10.112L12.3384 9.68752L13.0625 10.412C13.1187 10.4684 13.1952 10.4999 13.2746 10.4999C13.3541 10.4999 13.4306 10.4684 13.4867 10.412L14.3351 9.56331C14.4524 9.44603 14.4524 9.25643 14.3352 9.13911ZM13.2746 9.77572L12.6152 9.11602C12.5387 9.03952 12.4386 9.00141 12.3384 9.00141C12.2378 9.00141 12.1377 9.0398 12.0615 9.1157L11.8449 9.3323L11.2494 7.3472L13.2345 7.94271L13.0022 8.17492C12.9383 8.23911 12.9032 8.32433 12.9032 8.41493C12.9032 8.50584 12.9387 8.59162 13.0028 8.65522L13.6988 9.35121L13.2746 9.77572Z" fill="#3E3E3E"/>
<path d="M12.6004 2.69995H4.20038C4.03479 2.69995 3.90039 2.83435 3.90039 2.99994V4.49995C3.90039 4.66554 4.03479 4.79994 4.20038 4.79994H12.6004C12.766 4.79994 12.9004 4.66554 12.9004 4.49995V2.99994C12.9004 2.83435 12.766 2.69995 12.6004 2.69995ZM12.3004 4.19996H4.50037V3.29996H12.3004V4.19996Z" fill="#3E3E3E"/>
<path d="M7.79961 6H5.3996C5.23401 6 5.09961 6.1344 5.09961 6.29999V7.49998C5.09961 7.66556 5.23401 7.79996 5.3996 7.79996H7.79961C7.9652 7.79996 8.0996 7.66556 8.0996 7.49998V6.29999C8.0996 6.1344 7.9652 6 7.79961 6ZM7.49959 7.19999H5.69959V6.59998H7.49959V7.19999Z" fill="#3E3E3E"/>
<path d="M12.6004 2.69995H4.20038C4.03479 2.69995 3.90039 2.83435 3.90039 2.99994V8.69993C3.90039 8.86551 4.03479 8.99992 4.20038 8.99992H11.3422C11.4373 8.99992 11.5264 8.95523 11.5828 8.87901C11.6395 8.80283 11.6569 8.70443 11.6296 8.61351L11.2498 7.34722L12.5143 7.72673C12.6052 7.75405 12.7036 7.73665 12.7795 7.67994C12.8557 7.62355 12.9004 7.53415 12.9004 7.43933V2.99994C12.9004 2.83435 12.766 2.69995 12.6004 2.69995ZM12.3004 7.03616L10.8883 6.61256C10.7824 6.58074 10.6681 6.60985 10.5901 6.68787C10.5118 6.76616 10.483 6.88045 10.5148 6.98638L10.939 8.39998H4.50037V3.29996H12.3004V7.03616Z" fill="#3E3E3E"/>
</svg>
