<svg width="20" height="20" viewBox="0 0 20 20" fill="none" xmlns="http://www.w3.org/2000/svg">
<path d="M5 0C4.3125 0 3.75 0.5625 3.75 1.25V18.75C3.75 19.4375 4.3125 20 5 20H17.5C18.1875 20 18.75 19.4375 18.75 18.75V5L13.75 0H5Z" fill="#3E3E3E" fill-opacity="0.15"/>
<path d="M15 5H18.75L13.75 0V3.75C13.75 4.4375 14.3125 5 15 5Z" fill="#3E3E3E"/>
<path d="M18.75 8.75L15 5H18.75V8.75Z" fill="#3E3E3E" fill-opacity="0.3"/>
<path d="M16.25 16.25C16.25 16.5938 15.9688 16.875 15.625 16.875H1.875C1.53125 16.875 1.25 16.5938 1.25 16.25V10C1.25 9.65625 1.53125 9.375 1.875 9.375H15.625C15.9688 9.375 16.25 9.65625 16.25 10V16.25Z" fill="#12B9FF"/>
<path d="M5.18695 12.1673H4.31258C3.87758 12.1673 3.87758 11.5279 4.31258 11.5279H6.67633C7.12133 11.5279 7.12133 12.1673 6.67633 12.1673H5.84633V14.6904C5.84633 15.1248 5.18633 15.1354 5.18633 14.6904V12.1673H5.18695Z" fill="white"/>
<path d="M8.76654 12.7412L9.63654 11.6519C9.89654 11.3125 10.4009 11.7469 10.1165 12.0719C9.81654 12.4269 9.50216 12.8119 9.20154 13.2056L10.2215 14.475C10.4959 14.85 9.94654 15.21 9.67654 14.84L8.75716 13.6606L7.85279 14.865C7.59779 15.2294 7.03279 14.82 7.31841 14.48L8.32216 13.2056C8.00779 12.8112 7.70279 12.4269 7.39779 12.0719C7.08279 11.6969 7.66779 11.3125 7.89716 11.6625L8.76654 12.7412Z" fill="white"/>
<path d="M11.6521 12.1669H10.7784C10.3434 12.1669 10.3434 11.5275 10.7784 11.5275H13.1415C13.5865 11.5275 13.5865 12.1669 13.1415 12.1669H12.3122V14.69C12.3122 15.1244 11.6521 15.135 11.6521 14.69V12.1669Z" fill="white"/>
<path d="M15.625 16.875H3.75V17.5H15.625C15.9688 17.5 16.25 17.2188 16.25 16.875V16.25C16.25 16.5938 15.9688 16.875 15.625 16.875Z" fill="#CAD1D8"/>
</svg>
