<svg width="20" height="20" viewBox="0 0 20 20" fill="none" xmlns="http://www.w3.org/2000/svg">
<path d="M18.9444 2.46576H5.21289V14.032H18.9444V2.46576Z" fill="black" fill-opacity="0.1"/>
<path d="M18.9449 2.46576H12.0789V14.032H18.9449V2.46576Z" fill="black" fill-opacity="0.15"/>
<path d="M18.9444 2.46576H5.21289V3.95401H18.9444V2.46576Z" fill="#3E3E3E"/>
<path d="M18.9446 2.46576H12.0791V3.95401H18.9446V2.46576Z" fill="#12B9FF"/>
<path d="M6.03997 3.62203C6.24529 3.62203 6.41173 3.43735 6.41173 3.20953C6.41173 2.98171 6.24529 2.79703 6.03997 2.79703C5.83466 2.79703 5.66821 2.98171 5.66821 3.20953C5.66821 3.43735 5.83466 3.62203 6.03997 3.62203Z" fill="#12B9FF"/>
<path d="M7.15521 3.62203C7.36052 3.62203 7.52697 3.43735 7.52697 3.20953C7.52697 2.98171 7.36052 2.79703 7.15521 2.79703C6.94989 2.79703 6.78345 2.98171 6.78345 3.20953C6.78345 3.43735 6.94989 3.62203 7.15521 3.62203Z" fill="#12B9FF"/>
<path d="M8.27117 3.62203C8.47649 3.62203 8.64293 3.43735 8.64293 3.20953C8.64293 2.98171 8.47649 2.79703 8.27117 2.79703C8.06586 2.79703 7.89941 2.98171 7.89941 3.20953C7.89941 3.43735 8.06586 3.62203 8.27117 3.62203Z" fill="#12B9FF"/>
<path d="M14.9662 6.23758H1.23462V17.8038H14.9662V6.23758Z" fill="white"/>
<path d="M14.9667 6.23758H8.10059V17.8038H14.9667V6.23758Z" fill="black" fill-opacity="0.15"/>
<path d="M14.9662 6.23758H1.23462V7.72583H14.9662V6.23758Z" fill="#3E3E3E"/>
<path d="M14.966 6.23758H8.10059V7.72583H14.966V6.23758Z" fill="#12B9FF"/>
<path d="M2.06121 7.39458C2.26653 7.39458 2.43297 7.2099 2.43297 6.98208C2.43297 6.75426 2.26653 6.56958 2.06121 6.56958C1.8559 6.56958 1.68945 6.75426 1.68945 6.98208C1.68945 7.2099 1.8559 7.39458 2.06121 7.39458Z" fill="#12B9FF"/>
<path d="M3.17645 7.39458C3.38176 7.39458 3.54821 7.2099 3.54821 6.98208C3.54821 6.75426 3.38176 6.56958 3.17645 6.56958C2.97113 6.56958 2.80469 6.75426 2.80469 6.98208C2.80469 7.2099 2.97113 7.39458 3.17645 7.39458Z" fill="#12B9FF"/>
<path d="M4.29241 7.39458C4.49773 7.39458 4.66417 7.2099 4.66417 6.98208C4.66417 6.75426 4.49773 6.56958 4.29241 6.56958C4.0871 6.56958 3.92065 6.75426 3.92065 6.98208C3.92065 7.2099 4.0871 7.39458 4.29241 7.39458Z" fill="#12B9FF"/>
</svg>
