<svg width="18" height="18" viewBox="0 0 18 18" fill="none" xmlns="http://www.w3.org/2000/svg">
<path d="M15.9939 5.28462C16.5668 5.28462 17.0328 4.81855 17.0328 4.24571V1.03936C17.0328 0.466242 16.5668 0 15.9939 0H2.00668C1.43384 0 0.967773 0.466242 0.967773 1.03936V4.24571C0.967773 4.81855 1.43384 5.28462 2.00668 5.28462H8.55653V6.35769H2.00668C1.43384 6.35769 0.967773 6.82393 0.967773 7.39705V10.603C0.967773 11.1761 1.43384 11.6423 2.00668 11.6423H8.55653V12.7154H2.00668C1.43384 12.7154 0.967773 13.1815 0.967773 13.7543V16.9607C0.967773 17.5338 1.43384 18 2.00668 18H15.9939C16.5668 18 17.0328 17.5338 17.0328 16.9606V13.7543C17.0328 13.1814 16.5668 12.7154 15.9939 12.7154H9.44409V11.6423H15.9939C16.5668 11.6423 17.0328 11.1761 17.0328 10.6029V7.39702C17.0328 6.8239 16.5668 6.35766 15.9939 6.35766H9.44409V5.28458H15.9939V5.28462ZM15.9939 13.603C16.0774 13.603 16.1453 13.6708 16.1453 13.7543V16.9607C16.1453 17.0444 16.0774 17.1124 15.9939 17.1124H2.00668C1.92325 17.1124 1.85533 17.0444 1.85533 16.9607V13.7543C1.85533 13.6709 1.92321 13.603 2.00668 13.603H15.9939ZM15.9939 7.24528C16.0774 7.24528 16.1453 7.31334 16.1453 7.39705V10.603C16.1453 10.6867 16.0774 10.7548 15.9939 10.7548H2.00668C1.92325 10.7548 1.85533 10.6867 1.85533 10.603V7.39705C1.85533 7.31334 1.92321 7.24528 2.00668 7.24528H15.9939ZM2.00668 4.39703C1.92325 4.39703 1.85533 4.32918 1.85533 4.24568V1.03936C1.85533 0.955652 1.92321 0.88759 2.00668 0.88759H15.9939C16.0774 0.88759 16.1453 0.955652 16.1453 1.03936V4.24571C16.1453 4.32918 16.0774 4.39706 15.9939 4.39706H2.00668V4.39703Z" fill="#3E3E3E"/>
<path d="M14.2348 1.39978C13.5496 1.39978 12.9922 1.95722 12.9922 2.64238C12.9922 3.32754 13.5496 3.88498 14.2348 3.88498C14.9199 3.88498 15.4774 3.32754 15.4774 2.64238C15.4774 1.95722 14.9199 1.39978 14.2348 1.39978ZM14.2348 2.99742C14.039 2.99742 13.8797 2.83816 13.8797 2.64238C13.8797 2.44659 14.039 2.28733 14.2348 2.28733C14.4305 2.28733 14.5898 2.44663 14.5898 2.64238C14.5898 2.83813 14.4305 2.99742 14.2348 2.99742Z" fill="#3E3E3E"/>
<path d="M11.8971 2.19861H11.2758C11.0307 2.19861 10.832 2.39735 10.832 2.64238C10.832 2.88746 11.0307 3.08616 11.2758 3.08616H11.8971C12.1422 3.08616 12.3409 2.88742 12.3409 2.64238C12.3409 2.39735 12.1422 2.19861 11.8971 2.19861Z" fill="#3E3E3E"/>
<path d="M9.84146 2.19861H9.22014C8.97507 2.19861 8.77637 2.39735 8.77637 2.64238C8.77637 2.88746 8.9751 3.08616 9.22014 3.08616H9.84146C10.0865 3.08616 10.2852 2.88742 10.2852 2.64238C10.2852 2.39735 10.0865 2.19861 9.84146 2.19861Z" fill="#3E3E3E"/>
<path d="M7.78489 2.19861H2.96624C2.72116 2.19861 2.52246 2.39735 2.52246 2.64238C2.52246 2.88746 2.7212 3.08616 2.96624 3.08616H7.78489C8.02997 3.08616 8.22867 2.88742 8.22867 2.64238C8.22867 2.39735 8.02993 2.19861 7.78489 2.19861Z" fill="#3E3E3E"/>
<path d="M14.2348 7.75745C13.5496 7.75745 12.9922 8.31488 12.9922 9.00004C12.9922 9.6852 13.5496 10.2426 14.2348 10.2426C14.9199 10.2426 15.4774 9.6852 15.4774 9.00004C15.4774 8.31488 14.9199 7.75745 14.2348 7.75745ZM14.2348 9.35509C14.039 9.35509 13.8797 9.19579 13.8797 9.00004C13.8797 8.80429 14.039 8.645 14.2348 8.645C14.4305 8.645 14.5898 8.80429 14.5898 9.00004C14.5898 9.19579 14.4305 9.35509 14.2348 9.35509Z" fill="#3E3E3E"/>
<path d="M11.8971 8.55627H11.2758C11.0307 8.55627 10.832 8.75502 10.832 9.00006C10.832 9.2451 11.0307 9.44384 11.2758 9.44384H11.8971C12.1422 9.44384 12.3409 9.2451 12.3409 9.00006C12.3409 8.75502 12.1422 8.55627 11.8971 8.55627Z" fill="#3E3E3E"/>
<path d="M9.84146 8.55627H9.22014C8.97503 8.55627 8.77637 8.75494 8.77637 9.00006C8.77637 9.24513 8.9751 9.44384 9.22014 9.44384H9.84146C10.0865 9.44384 10.2852 9.2451 10.2852 9.00006C10.2852 8.75502 10.0865 8.55627 9.84146 8.55627Z" fill="#3E3E3E"/>
<path d="M7.78489 8.55627H2.96624C2.72116 8.55627 2.52246 8.75502 2.52246 9.00006C2.52246 9.2451 2.7212 9.44384 2.96624 9.44384H7.78489C8.02997 9.44384 8.22867 9.2451 8.22867 9.00006C8.22867 8.75502 8.02993 8.55627 7.78489 8.55627Z" fill="#3E3E3E"/>
<path d="M14.2348 14.115C13.5496 14.115 12.9922 14.6724 12.9922 15.3576C12.9922 16.0427 13.5496 16.6002 14.2348 16.6002C14.9199 16.6002 15.4774 16.0427 15.4774 15.3576C15.4774 14.6724 14.9199 14.115 14.2348 14.115ZM14.2348 15.7126C14.039 15.7126 13.8797 15.5534 13.8797 15.3576C13.8797 15.1618 14.039 15.0025 14.2348 15.0025C14.4305 15.0025 14.5898 15.1618 14.5898 15.3576C14.5898 15.5533 14.4305 15.7126 14.2348 15.7126Z" fill="#3E3E3E"/>
<path d="M11.8971 14.9139H11.2758C11.0307 14.9139 10.832 15.1127 10.832 15.3577C10.832 15.6028 11.0307 15.8015 11.2758 15.8015H11.8971C12.1422 15.8015 12.3409 15.6028 12.3409 15.3577C12.3409 15.1127 12.1422 14.9139 11.8971 14.9139Z" fill="#3E3E3E"/>
<path d="M9.84146 14.9139H9.22014C8.97503 14.9139 8.77637 15.1126 8.77637 15.3577C8.77637 15.6028 8.9751 15.8015 9.22014 15.8015H9.84146C10.0865 15.8015 10.2852 15.6028 10.2852 15.3577C10.2852 15.1127 10.0865 14.9139 9.84146 14.9139Z" fill="#3E3E3E"/>
<path d="M7.78489 14.9139H2.96624C2.72116 14.9139 2.52246 15.1127 2.52246 15.3577C2.52246 15.6028 2.7212 15.8015 2.96624 15.8015H7.78489C8.02997 15.8015 8.22867 15.6028 8.22867 15.3577C8.22867 15.1127 8.02993 14.9139 7.78489 14.9139Z" fill="#3E3E3E"/>
</svg>
