<svg width="18" height="18" viewBox="0 0 18 18" fill="none" xmlns="http://www.w3.org/2000/svg">
<path d="M5.70057 11.7H3.90057C3.73499 11.7 3.60059 11.834 3.60059 11.9999V13.7999C3.60059 13.9658 3.73499 14.0999 3.90057 14.0999H5.70057C5.86616 14.0999 6.00056 13.9658 6.00056 13.7999V11.9999C6.0006 11.834 5.8662 11.7 5.70057 11.7ZM5.40059 13.5H4.2006V12.3H5.40059V13.5Z" fill="#2F2F2F"/>
<path d="M9.89979 7.5H8.09979C7.93421 7.5 7.7998 7.63409 7.7998 7.79999V9.59999C7.7998 9.7659 7.93421 9.89998 8.09979 9.89998H9.89979C10.0654 9.89998 10.1998 9.7659 10.1998 9.59999V7.79999C10.1998 7.63412 10.0654 7.5 9.89979 7.5ZM9.5998 9.3H8.39982V8.10001H9.5998V9.3Z" fill="#2F2F2F"/>
<path d="M8.1 8.40002C6.1149 8.40002 4.5 10.0149 4.5 12C4.5 12.1659 4.6344 12.3 4.79999 12.3C4.96557 12.3 5.09998 12.1659 5.09998 12C5.09998 10.3458 6.44579 9.00004 8.09996 9.00004C8.26555 9.00004 8.39995 8.86595 8.39995 8.70005C8.39995 8.53415 8.26559 8.40002 8.1 8.40002Z" fill="#2F2F2F"/>
<path d="M14.1 11.7H12.3C12.1344 11.7 12 11.834 12 11.9999V13.7999C12 13.9658 12.1344 14.0999 12.3 14.0999H14.1C14.2656 14.0999 14.4 13.9658 14.4 13.7999V11.9999C14.4 11.834 14.2656 11.7 14.1 11.7ZM13.8 13.5H12.6V12.3H13.8V13.5Z" fill="#2F2F2F"/>
<path d="M9.8996 8.40002C9.73401 8.40002 9.59961 8.53411 9.59961 8.70001C9.59961 8.86592 9.73401 9.00004 9.8996 9.00004C11.5538 9.00004 12.8996 10.3459 12.8996 12C12.8996 12.1659 13.034 12.3 13.1996 12.3C13.3652 12.3 13.4996 12.1659 13.4996 12C13.4996 10.0149 11.8847 8.40002 9.8996 8.40002Z" fill="#2F2F2F"/>
<path d="M8.10058 8.40002H3.90057C3.73499 8.40002 3.60059 8.53411 3.60059 8.70001C3.60059 8.86592 3.73499 9 3.90057 9H8.10058C8.26617 9 8.40057 8.86592 8.40057 8.70001C8.40057 8.53411 8.26617 8.40002 8.10058 8.40002Z" fill="#2F2F2F"/>
<path d="M14.0996 8.40002H9.8996C9.73401 8.40002 9.59961 8.53411 9.59961 8.70001C9.59961 8.86591 9.73401 9.00003 9.8996 9.00003H14.0996C14.2652 9.00003 14.3996 8.86595 14.3996 8.70005C14.3996 8.53414 14.2652 8.40002 14.0996 8.40002Z" fill="#2F2F2F"/>
<path d="M16.65 0H1.35C0.605707 0 0 0.605707 0 1.35V16.65C0 17.3943 0.605707 18 1.35 18H16.65C17.3943 18 18 17.3943 18 16.65V1.35C18 0.605707 17.3943 0 16.65 0ZM17.4 16.65C17.4 17.0637 17.0637 17.4 16.65 17.4H1.35C0.936598 17.4 0.600012 17.0637 0.600012 16.65V1.35C0.600012 0.936281 0.936598 0.600012 1.35 0.600012H16.65C17.0634 0.600012 17.4 0.936316 17.4 1.35V16.65Z" fill="#2F2F2F"/>
<path d="M2.70017 1.19995H1.50018C1.3346 1.19995 1.2002 1.33404 1.2002 1.49994V2.69996C1.2002 2.86587 1.3346 2.99995 1.50018 2.99995H2.70017C2.86576 2.99995 3.00016 2.86587 3.00016 2.69996V1.49997C3.00016 1.33407 2.86576 1.19995 2.70017 1.19995ZM2.40018 2.39998H1.80017V1.79996H2.40018V2.39998Z" fill="#2F2F2F"/>
<path d="M5.09959 1.19995H3.8996C3.73401 1.19995 3.59961 1.33404 3.59961 1.49994V2.69996C3.59961 2.86587 3.73401 2.99995 3.8996 2.99995H5.09959C5.26517 2.99995 5.39957 2.86587 5.39957 2.69996V1.49997C5.39957 1.33407 5.26517 1.19995 5.09959 1.19995ZM4.79956 2.39998H4.19955V1.79996H4.79956V2.39998Z" fill="#2F2F2F"/>
<path d="M7.49997 1.19995H6.29999C6.1344 1.19995 6 1.33404 6 1.49994V2.69996C6 2.86587 6.1344 2.99995 6.29999 2.99995H7.49997C7.66556 2.99995 7.79996 2.86587 7.79996 2.69996V1.49997C7.8 1.33407 7.6656 1.19995 7.49997 1.19995ZM7.19999 2.39998H6.59998V1.79996H7.19999V2.39998Z" fill="#2F2F2F"/>
<path d="M16.65 0H1.35C0.605707 0 0 0.605707 0 1.35V3.89999C0 4.06589 0.134402 4.19998 0.299988 4.19998H17.7C17.8656 4.19998 18 4.06589 18 3.89999V1.35C18 0.605707 17.3943 0 16.65 0ZM17.4 3.6H0.600012V1.35C0.600012 0.936281 0.936598 0.600012 1.35 0.600012H16.65C17.0634 0.600012 17.4 0.936316 17.4 1.35V3.6Z" fill="#2F2F2F"/>
<path d="M16.5002 4.80005H1.50018C1.3346 4.80005 1.2002 4.93413 1.2002 5.10004V16.5C1.2002 16.666 1.3346 16.8 1.50018 16.8H16.5002C16.6658 16.8 16.8002 16.666 16.8002 16.5V5.10007C16.8002 4.93417 16.6658 4.80005 16.5002 4.80005ZM16.2002 16.2001H1.80017V5.40006H16.2002V16.2001Z" fill="#2F2F2F"/>
<path d="M3.90037 6H2.70038C2.53479 6 2.40039 6.13409 2.40039 6.29999V7.49998C2.40039 7.66588 2.53479 7.79997 2.70038 7.79997C2.86597 7.79997 3.00037 7.66588 3.00037 7.49998V6.59998H3.90037C4.06595 6.59998 4.20036 6.46589 4.20036 6.29999C4.20036 6.13409 4.06599 6 3.90037 6Z" fill="#2F2F2F"/>
<path d="M15.2998 13.8C15.1342 13.8 14.9998 13.9341 14.9998 14.1V15H14.0998C13.9342 15 13.7998 15.1341 13.7998 15.3C13.7998 15.4659 13.9342 15.6 14.0998 15.6H15.2998C15.4654 15.6 15.5998 15.4659 15.5998 15.3V14.1C15.5998 13.9342 15.4654 13.8 15.2998 13.8Z" fill="#2F2F2F"/>
<path d="M11.0116 12.388L9.21157 10.588C9.09457 10.4707 8.90437 10.4707 8.78737 10.588L6.98737 12.388C6.90155 12.4738 6.87579 12.6028 6.92226 12.715C6.96874 12.8271 7.07797 12.9001 7.19947 12.9001C7.52769 12.9001 8.09947 13.4719 8.09947 13.8001C8.09947 13.966 8.23387 14.1 8.39946 14.1H9.59945C9.76503 14.1 9.89944 13.966 9.89944 13.8001C9.89944 13.4719 10.4713 12.9001 10.7994 12.9001C10.9209 12.9001 11.0301 12.8271 11.0766 12.715C11.1232 12.6028 11.0974 12.4737 11.0116 12.388ZM9.35107 13.5001H8.64787C8.51677 13.0992 8.15347 12.6883 7.75747 12.4666L8.99947 11.2243L10.2415 12.4665C9.84547 12.6883 9.48217 13.0992 9.35107 13.5001Z" fill="#2F2F2F"/>
<path d="M9.59959 13.5H8.3996C8.23401 13.5 8.09961 13.6341 8.09961 13.8V15C8.09961 15.1659 8.23401 15.3 8.3996 15.3H9.59959C9.76517 15.3 9.89957 15.1659 9.89957 15V13.8C9.89957 13.6341 9.76517 13.5 9.59959 13.5ZM9.29956 14.7H8.69955V14.1H9.29956V14.7Z" fill="#2F2F2F"/>
<path d="M9.00018 10.5C8.8346 10.5 8.7002 10.6341 8.7002 10.8V12C8.7002 12.1659 8.8346 12.3 9.00018 12.3C9.16577 12.3 9.30017 12.1659 9.30017 12V10.8C9.30017 10.6341 9.16577 10.5 9.00018 10.5Z" fill="#2F2F2F"/>
</svg>
