<svg width="18" height="18" viewBox="0 0 18 18" fill="none" xmlns="http://www.w3.org/2000/svg">
<g clip-path="url(#clip0)">
<path d="M7.27439 1.53552C-0.0441598 2.5027 0.806832 2.38693 0.328566 2.46361C0.146141 2.49286 0.0136719 2.64821 0.0136719 2.83303V8.5705C0.0136719 8.77729 0.181051 8.94484 0.387945 8.94484C0.388051 8.94484 0.388156 8.94484 0.388262 8.94484C2.67468 8.94291 4.98297 8.88286 7.3236 8.88103C7.52976 8.88086 7.69749 8.71309 7.69749 8.50704V1.90649C7.69753 1.68008 7.49784 1.50588 7.27439 1.53552ZM7.17096 8.35471C4.92844 8.35886 2.72714 8.41381 0.540242 8.41809V2.96297C0.851094 2.91312 0.0875356 3.01644 7.17096 2.08034V8.35471Z" fill="#3E3E3E"/>
<path d="M7.31411 9.12426C5.28525 9.17435 0.352824 9.12134 0.387945 9.12134C0.181121 9.12134 0.0136719 9.28879 0.0136719 9.49565V15.2308C0.0136719 15.4172 0.152961 15.5766 0.337672 15.6015C0.374727 15.6066 7.23255 16.5339 7.32311 16.5339C7.52916 16.5339 7.69746 16.3668 7.69746 16.1598V9.49804C7.69749 9.28457 7.52073 9.11895 7.31411 9.12426ZM7.17092 15.986C4.89501 15.6859 2.68273 15.3871 0.540207 15.0975V9.65125C2.72137 9.65543 4.92532 9.70187 7.17092 9.65125V15.986Z" fill="#3E3E3E"/>
<path d="M17.559 0.00394134C16.0963 0.212769 14.6733 0.413512 13.252 0.62118C13.1081 0.642203 13.0085 0.775902 13.0295 0.919762C13.0505 1.06362 13.184 1.16325 13.3281 1.14223C14.6851 0.943949 16.0303 0.75393 17.4598 0.550023V8.2909C14.5049 8.29417 11.4801 8.35123 8.52852 8.3545V1.87939C9.05235 1.80148 9.88763 1.65453 12.1004 1.32357C12.2442 1.30205 12.3433 1.16804 12.3218 1.02425C12.3003 0.880457 12.1662 0.781246 12.0225 0.802797C9.80533 1.13443 9.01916 1.27407 8.32114 1.37785C8.1392 1.40488 8.00195 1.56396 8.00195 1.7479V8.50687C8.00195 8.71359 8.16912 8.88111 8.37602 8.88111C11.2751 8.88111 14.5643 8.81874 17.6126 8.8173C17.8187 8.81719 17.9863 8.64939 17.9863 8.44331V0.374242C17.9863 0.146922 17.7845 -0.0282266 17.559 0.00394134Z" fill="#3E3E3E"/>
<path d="M17.723 13.5596C17.8685 13.5596 17.9863 13.4417 17.9863 13.2963V9.55944C17.9863 9.35314 17.8185 9.1853 17.6122 9.1853H8.37609C8.16979 9.1853 8.00195 9.35314 8.00195 9.55944V16.3178C8.00195 16.5029 8.14012 16.6623 8.32339 16.6883C11.365 17.1214 14.5065 17.5014 17.5526 17.9951C17.7795 18.032 17.9864 17.8567 17.9864 17.6259V14.5249C17.9864 14.3795 17.8685 14.2616 17.7231 14.2616C17.5777 14.2616 17.4598 14.3795 17.4598 14.5249V17.4467C14.5042 16.9725 11.4768 16.6035 8.52856 16.1856V9.71184H17.4598V13.2963C17.4598 13.4417 17.5776 13.5596 17.723 13.5596Z" fill="#3E3E3E"/>
</g>
<defs>
<clipPath id="clip0">
<rect width="18" height="18" fill="white"/>
</clipPath>
</defs>
</svg>
